<?xml version="1.0" encoding="utf-8"?>
<!-- Generator: Adobe Illustrator 18.1.1, SVG Export Plug-In . SVG Version: 6.00 Build 0)  -->
<svg width='415px' height='243px' version="1.1" id="Layer_1" xmlns="http://www.w3.org/2000/svg" xmlns:xlink="http://www.w3.org/1999/xlink" x="0px" y="0px"
	 viewBox="0 0 409 243" enable-background="new 0 0 409 243" xml:space="preserve">
<g>
	<path fill="#DA5552" d="M108.3,155.7c-6.8,0-12.1-1.1-15.9-3.2c-3.8-2.1-6.5-5.4-8-9.9c-1.5-4.5-2.3-10.2-2.3-17.3V71.1l-35.3,78.3
		h-2.8L7.5,69.7v79.7H1.8V56.3h13.4l33.8,73.3l33.1-73.3h12.7v69.1c0,8.6,1.1,15.3,3.2,20.2c2.2,4.9,5.5,7.3,10.2,7.3V155.7z"/>
	<path fill="#DA5552" d="M134.9,150.8c-2,0-4.1-0.3-6.4-0.9c-2.3-0.6-4.5-1.7-6.7-3.2c-2.2-1.5-3.9-3.5-5.3-6.1
		c-1.4-2.5-2-5.7-2-9.6c0-5.2,1.7-9.2,5-12c3.3-2.8,7.8-4.8,13.3-6c5.5-1.2,11.4-1.8,17.7-1.8h4.2c0-6.6-0.7-11.6-2-15
		c-1.3-3.4-3.1-5.8-5.3-7.1c-2.2-1.3-4.7-1.9-7.5-1.9c-3.9,0-7.3,0.8-9.9,2.5s-4.5,4.8-5.6,9.4H118c0-2.4,0.1-4.7,0.4-6.8
		c0.3-2.1,1.3-4.1,3.1-5.9c1.8-1.8,4.7-3.1,8.7-3.8c4-0.8,8.2-1.1,12.4-1.1c3.2,0,6.3,0.4,9.2,1.1c3,0.8,5.6,2.1,7.9,4.2
		c2.3,2,4.1,5,5.5,8.9c1.4,3.9,2,9,2,15.4v38.1h-7l-4.9-6.3h-0.7c-1.4,1.8-3.7,3.5-6.9,5.2C144.6,149.9,140.3,150.8,134.9,150.8z
		 M141.3,144.4c3.5,0,6.2-0.9,8.2-2.6c2-1.7,3.7-3.7,5.1-5.9v-19h-4.2c-7.1,0-12.6,1.3-16.6,3.9c-4,2.6-6,6-6,10.2
		c0,4.6,1.4,8,4.1,10.2C134.7,143.3,137.8,144.4,141.3,144.4z"/>
	<path fill="#DA5552" d="M189.1,149.3V100c0-4.2-0.6-7.6-1.8-10.2c-1.2-2.6-3.9-3.9-8.1-3.9h-2.8v-2.8h12.7c3.3,0,5.9,0.4,7.7,1.3
		s3.1,2.5,3.9,4.9c0.8,2.4,1.1,6,1.1,10.7v49.4H189.1z M194.4,74.6c-2.2,0-4-0.9-5.6-2.7c-1.6-1.8-2.3-3.9-2.3-6.3
		c0-2,0.6-3.5,1.8-4.7c1.2-1.1,2.7-1.7,4.7-1.7c2.2,0,4,0.9,5.6,2.7c1.6,1.8,2.3,3.9,2.3,6.3c0,2-0.6,3.5-1.8,4.7
		C198,74.1,196.4,74.6,194.4,74.6z"/>
	<path fill="#DA5552" d="M243.8,150.8c-5.6,0-10.2-0.5-13.8-1.5c-3.6-1-6.3-2.4-8-4.2c-1.8-1.8-2.8-3.8-3.1-6.1s-0.4-5.2-0.4-8.7
		h2.8c0.8,4.6,2.7,8.2,5.9,10.9c3.2,2.6,7.8,3.9,13.8,3.9c5.4,0,9.3-0.9,11.8-2.8c2.5-1.9,3.7-4.2,3.7-7c0-2.8-1.1-5.2-3.2-7.1
		c-2.1-1.9-5.3-3.8-9.5-5.6l-8.5-3.5c-5.4-2.2-9.5-4.7-12.5-7.7s-4.4-6.7-4.4-11.4c0-5.9,2.2-10.5,6.6-13.6c4.4-3.1,10-4.7,16.6-4.7
		c5.4,0,9.8,0.5,13.3,1.5c3.5,1,6.1,2.4,7.9,4.2c1.8,1.8,2.8,3.8,3.1,6.1s0.4,5.2,0.4,8.7h-2.8c-0.8-4.6-2.7-8.2-5.9-10.9
		c-3.2-2.6-7.5-3.9-13.2-3.9c-4.6,0-8.1,0.9-10.5,2.8c-2.4,1.9-3.6,4.2-3.6,7.1c0,2.4,1,4.7,3,6.7c2,2,4.7,3.8,8.3,5.3l8.5,3.5
		c6,2.4,10.6,5.1,13.7,8c3.1,2.9,4.7,6.8,4.7,11.7c0,5.9-2.4,10.5-7,13.6C256.7,149.2,250.8,150.8,243.8,150.8z"/>
	<path fill="#DA5552" d="M284.5,149.3V73.2c0-4.2-0.6-7.6-1.8-10.2c-1.2-2.6-3.9-3.9-8.1-3.9h-2.8v-2.8h12.7c3.3,0,5.9,0.4,7.7,1.3
		s3.1,2.5,3.9,4.9c0.8,2.4,1.1,6,1.1,10.7v15.5c1.8-1.8,4.2-3.4,7.3-4.9c3.1-1.5,6.8-2.2,11-2.2c4,0,7.9,0.7,11.5,2.1
		c3.6,1.4,6.6,3.9,9,7.5c2.3,3.6,3.5,8.9,3.5,15.7v42.3h-12.7V107c0-4.7-0.8-8.4-2.3-11.2c-1.5-2.8-3.4-4.8-5.8-6
		c-2.4-1.2-4.8-1.8-7.5-1.8c-2.8,0-5.4,0.8-7.8,2.3c-2.4,1.5-4.5,3.2-6.3,5.2v53.9H284.5z"/>
	<path fill="#DA5552" d="M374.9,150.8c-2,0-4.1-0.3-6.4-0.9c-2.3-0.6-4.5-1.7-6.7-3.2c-2.2-1.5-3.9-3.5-5.3-6.1
		c-1.4-2.5-2-5.7-2-9.6c0-5.2,1.7-9.2,5-12c3.3-2.8,7.8-4.8,13.3-6c5.5-1.2,11.4-1.8,17.7-1.8h4.2c0-6.6-0.7-11.6-2-15
		c-1.3-3.4-3.1-5.8-5.3-7.1c-2.2-1.3-4.7-1.9-7.5-1.9c-3.9,0-7.3,0.8-9.9,2.5s-4.5,4.8-5.6,9.4H358c0-2.4,0.1-4.7,0.4-6.8
		c0.3-2.1,1.3-4.1,3.1-5.9c1.8-1.8,4.7-3.1,8.7-3.8c4-0.8,8.2-1.1,12.4-1.1c3.2,0,6.3,0.4,9.2,1.1c3,0.8,5.6,2.1,7.9,4.2
		c2.3,2,4.1,5,5.5,8.9c1.4,3.9,2,9,2,15.4v38.1h-7l-4.9-6.3h-0.7c-1.4,1.8-3.7,3.5-6.9,5.2C384.5,149.9,380.3,150.8,374.9,150.8z
		 M381.2,144.4c3.5,0,6.2-0.9,8.2-2.6c2-1.7,3.7-3.7,5.1-5.9v-19h-4.2c-7,0-12.6,1.3-16.6,3.9c-4,2.6-6,6-6,10.2
		c0,4.6,1.4,8,4.1,10.2C374.7,143.3,377.8,144.4,381.2,144.4z"/>
</g>
<g>
	<path fill="#D6CC09" d="M7.3,42.1c-1.4,0-2.5-0.2-3.3-0.5s-1.4-1.1-1.7-2.1c-0.3-1.1-0.5-2.6-0.5-4.6v-33h5.5v33
		c0,1.8,0.3,3.3,0.8,4.4c0.5,1.1,1.7,1.7,3.5,1.7h1.2v1.2H7.3z"/>
	<path fill="#D6CC09" d="M40.3,42.7c-0.9,0-1.8-0.1-2.8-0.4c-1-0.3-2-0.7-2.9-1.4c-0.9-0.7-1.7-1.5-2.3-2.6
		c-0.6-1.1-0.9-2.5-0.9-4.2c0-2.2,0.7-4,2.2-5.2c1.4-1.2,3.4-2.1,5.7-2.6c2.4-0.5,4.9-0.8,7.7-0.8h1.8c0-2.9-0.3-5-0.9-6.5
		c-0.6-1.5-1.3-2.5-2.3-3.1c-1-0.5-2-0.8-3.3-0.8c-1.7,0-3.1,0.4-4.3,1.1c-1.2,0.7-2,2.1-2.4,4.1h-2.7c0-1.1,0.1-2,0.2-3
		c0.1-0.9,0.6-1.8,1.3-2.5c0.8-0.8,2-1.3,3.8-1.6c1.8-0.3,3.5-0.5,5.4-0.5c1.4,0,2.7,0.2,4,0.5c1.3,0.3,2.4,0.9,3.4,1.8
		c1,0.9,1.8,2.2,2.4,3.8c0.6,1.7,0.9,3.9,0.9,6.7v16.5h-3.1l-2.1-2.7h-0.3c-0.6,0.8-1.6,1.5-3,2.3C44.4,42.3,42.6,42.7,40.3,42.7z
		 M43,39.9c1.5,0,2.7-0.4,3.6-1.1c0.9-0.8,1.6-1.6,2.2-2.5V28H47c-3.1,0-5.4,0.6-7.2,1.7c-1.7,1.1-2.6,2.6-2.6,4.4
		c0,2,0.6,3.5,1.8,4.4C40.1,39.5,41.5,39.9,43,39.9z"/>
	<path fill="#D6CC09" d="M63.7,42.1V20.7c0-1.8-0.3-3.3-0.8-4.4c-0.5-1.1-1.7-1.7-3.5-1.7h-1.2v-1.2h5.5c1.5,0,2.7,0.2,3.5,0.6
		s1.4,1,1.7,1.8h0.3c0.8-0.8,1.8-1.5,3.2-2.1c1.3-0.6,2.9-0.9,4.8-0.9c1.5,0,3,0.3,4.2,0.9c1.3,0.6,2.3,1.7,3.1,3.4
		c1.1-1.4,2.4-2.4,4.1-3.2c1.7-0.7,3.4-1.1,5.1-1.1c1.5,0,3,0.3,4.2,0.9s2.3,1.7,3.1,3.3c0.8,1.6,1.2,3.8,1.2,6.8v18.3h-5.5V23.8
		c0-3.1-0.4-5.2-1.3-6.4c-0.9-1.2-2.1-1.8-3.6-1.8c-1.2,0-2.4,0.4-3.7,1.3c-1.3,0.9-2.2,1.8-2.7,2.7c0.2,0.4,0.3,1.1,0.3,2
		c0,0.9,0,1.6,0,2.3v18.3h-5.5V23.8c0-3.1-0.4-5.2-1.3-6.4c-0.9-1.2-2.1-1.8-3.6-1.8c-1.2,0-2.4,0.3-3.4,1c-1,0.7-1.9,1.4-2.7,2.3
		v23.3H63.7z"/>
</g>
<g>
	<path fill="#DA5552" d="M10.5,241v-64.8c0-3.6-0.5-6.5-1.5-8.7c-1-2.2-3.3-3.3-6.9-3.3h-2.4v-2.4h10.8c2.8,0,5,0.4,6.5,1.1
		c1.6,0.7,2.7,2.1,3.3,4.2c0.6,2.1,1,5.1,1,9.1v60h42.6v4.8H10.5z"/>
	<path fill="#DA5552" d="M93.7,242.2c-5.6,0-10.3-1.3-14-4c-3.7-2.6-6.5-6.2-8.4-10.7c-1.9-4.5-2.8-9.4-2.8-14.8
		c0-5.4,1-10.4,2.9-14.8c1.9-4.4,4.7-8,8.3-10.6c3.6-2.6,7.9-4,12.8-4c8.2,0,14.2,2.3,18.1,6.8c3.9,4.6,5.9,11.1,5.9,19.6l-0.2,4.8
		H79.9c0,6.6,1.4,12,4.3,16.3c2.8,4.3,6.8,6.5,11.9,6.5c3.9,0,7.2-0.8,9.8-2.5c2.6-1.7,4.9-4,7-7.1l2.4,1.8
		c-2.7,4.6-5.9,7.8-9.4,9.7C102.3,241.2,98.2,242.2,93.7,242.2z M79.9,209.8h25.2c0-7-1-12.3-3.1-16c-2.1-3.7-5.2-5.6-9.5-5.6
		c-2.4,0-4.5,0.9-6.4,2.8c-1.9,1.9-3.4,4.4-4.5,7.7C80.4,201.9,79.9,205.6,79.9,209.8z"/>
	<path fill="#DA5552" d="M153.4,242.2c-5.6,0-10.4-1.3-14.3-4c-3.9-2.6-6.9-6.2-9-10.7c-2.1-4.5-3.1-9.4-3.1-14.8
		c0-5.4,1-10.4,3.1-14.8c2.1-4.4,5.1-8,9-10.6c3.9-2.6,8.7-4,14.3-4c5.6,0,10.4,1.3,14.3,4c3.9,2.6,6.9,6.2,9,10.6
		c2.1,4.4,3.1,9.4,3.1,14.8c0,5.4-1,10.3-3.1,14.8c-2.1,4.5-5.1,8-9,10.7C163.8,240.9,159,242.2,153.4,242.2z M153.4,237.4
		c3,0,5.7-1.1,7.9-3.3c2.2-2.2,4-5.2,5.2-8.9c1.2-3.7,1.9-7.9,1.9-12.4c0-4.6-0.6-8.8-1.9-12.5c-1.2-3.7-3-6.6-5.2-8.8
		c-2.2-2.2-4.9-3.3-7.9-3.3c-3,0-5.6,1.1-7.9,3.3c-2.3,2.2-4,5.1-5.3,8.8c-1.2,3.7-1.9,7.8-1.9,12.5c0,4.6,0.6,8.7,1.9,12.4
		c1.2,3.7,3,6.7,5.3,8.9C147.9,236.3,150.5,237.4,153.4,237.4z"/>
	<path fill="#DA5552" d="M195.7,241v-42c0-3.6-0.5-6.5-1.5-8.7c-1-2.2-3.3-3.3-6.9-3.3h-2.4v-2.4h10.8c3,0,5.3,0.4,6.9,1.3
		c1.6,0.8,2.7,2,3.3,3.5h0.6c1.5-1.5,3.6-2.9,6.2-4.1c2.6-1.2,5.8-1.9,9.4-1.9c3.4,0,6.7,0.6,9.8,1.8c3.1,1.2,5.6,3.3,7.6,6.4
		c2,3.1,3,7.5,3,13.4v36h-10.8v-36c0-4-0.6-7.2-1.9-9.5c-1.3-2.4-2.9-4.1-4.9-5.1c-2-1-4.1-1.6-6.4-1.6c-2.4,0-4.6,0.6-6.7,1.9
		c-2,1.3-3.8,2.8-5.3,4.4V241H195.7z"/>
	<path fill="#DA5552" d="M272.6,242.2c-1.7,0-3.5-0.3-5.5-0.8c-2-0.5-3.9-1.4-5.7-2.7c-1.8-1.3-3.3-3-4.5-5.2
		c-1.2-2.2-1.7-4.9-1.7-8.2c0-4.4,1.4-7.8,4.3-10.2c2.8-2.4,6.6-4.1,11.3-5.1c4.7-1,9.7-1.5,15.1-1.5h3.6c0-5.6-0.6-9.9-1.7-12.8
		c-1.1-2.9-2.6-4.9-4.5-6c-1.9-1.1-4-1.6-6.4-1.6c-3.4,0-6.2,0.7-8.5,2.2c-2.3,1.4-3.9,4.1-4.7,8h-5.4c0-2.1,0.1-4,0.4-5.8
		s1.1-3.5,2.6-5c1.5-1.5,4-2.6,7.4-3.2c3.4-0.6,7-1,10.6-1c2.7,0,5.3,0.3,7.9,1c2.5,0.6,4.8,1.8,6.7,3.5c2,1.7,3.5,4.2,4.7,7.6
		c1.2,3.3,1.7,7.7,1.7,13.1V241h-6l-4.2-5.4h-0.6c-1.2,1.5-3.2,3-5.9,4.4C280.8,241.5,277.2,242.2,272.6,242.2z M278,236.8
		c3,0,5.3-0.7,7-2.2c1.7-1.5,3.2-3.1,4.4-5v-16.2h-3.6c-6,0-10.7,1.1-14.1,3.3c-3.4,2.2-5.1,5.1-5.1,8.7c0,3.9,1.2,6.8,3.5,8.6
		C272.4,235.9,275,236.8,278,236.8z"/>
	<path fill="#DA5552" d="M317.8,241v-42c0-3.6-0.5-6.5-1.5-8.7c-1-2.2-3.3-3.3-6.9-3.3h-1.2v-2.4h9.6c3,0,5.3,0.4,6.9,1.3
		c1.6,0.9,2.7,2.2,3.3,4.1h0.6c1.2-1.5,3-3,5.4-4.4c2.4-1.4,5.4-2.2,9-2.2c1.2,0,2.5,0.1,3.8,0.4c1.4,0.3,2.5,0.7,3.4,1.4
		c0.9,0.6,1.6,1.4,2.3,2.3c0.6,0.9,1.3,1.9,1.9,3.1l-4.8,3.6c-0.9-1.2-2.2-2.1-3.9-2.7c-1.7-0.6-3.6-0.9-5.7-0.9
		c-2.4,0-4.6,0.5-6.6,1.6c-2,1.1-3.6,2.5-4.8,4.4V241H317.8z"/>
	<path fill="#DA5552" d="M382,242.2c-4.8,0-8.8-1.3-12-4c-3.2-2.6-5.6-6.2-7.2-10.7c-1.6-4.5-2.4-9.4-2.4-14.8
		c0-5.4,0.8-10.4,2.5-14.8c1.6-4.4,4.1-8,7.5-10.6c3.4-2.6,7.6-4,12.8-4c3.4,0,6.2,0.4,8.6,1.1c2.4,0.8,4.5,1.6,6.4,2.5v-10.8
		c0-3.6-0.5-6.5-1.5-8.7c-1-2.2-3.3-3.3-6.9-3.3h-2.4v-2.4h10.8c2.8,0,5,0.4,6.5,1.1c1.6,0.7,2.7,2.1,3.3,4.2c0.6,2.1,1,5.1,1,9.1
		V241h-6l-4.2-5.4h-0.6c-1.3,1.5-3.1,3-5.4,4.4C390.5,241.5,386.9,242.2,382,242.2z M385.6,237.4c3.7,0,6.4-0.8,8.1-2.3
		c1.7-1.5,3.2-3.2,4.5-4.9v-38.4c-1.8-0.9-3.7-1.7-5.7-2.5c-2-0.8-3.9-1.1-5.7-1.1c-3.6,0-6.5,1.1-8.7,3.3c-2.2,2.2-3.8,5.1-4.8,8.8
		c-1,3.7-1.5,7.8-1.5,12.5c0,4.6,0.5,8.7,1.4,12.4c1,3.7,2.5,6.7,4.5,8.9C379.8,236.3,382.4,237.4,385.6,237.4z"/>
</g>
</svg>
