<?xml version="1.0" encoding="utf-8"?>
<!-- Generator: Adobe Illustrator 18.1.1, SVG Export Plug-In . SVG Version: 6.00 Build 0)  -->
<svg width='415px' height='243px' version="1.1" id="Layer_1" xmlns="http://www.w3.org/2000/svg" xmlns:xlink="http://www.w3.org/1999/xlink" x="0px" y="0px"
	 viewBox="-76 282.5 415 243" enable-background="new -76 282.5 415 243" xml:space="preserve">
<g>
	<path fill="#FE69B2" d="M35.3,438.2c-6.8,0-12.1-1.1-15.9-3.2c-3.8-2.1-6.5-5.4-8-9.9s-2.3-10.2-2.3-17.3v-54.2l-35.3,78.3H-29
		l-36.5-79.7v79.7h-5.7v-93.1h13.4l33.8,73.3l33.1-73.3h12.7v69.1c0,8.6,1.1,15.3,3.2,20.2c2.2,4.9,5.5,7.3,10.2,7.3v2.8H35.3z"/>
	<path fill="#FE69B2" d="M61.9,433.3c-2,0-4.1-0.3-6.4-0.9c-2.3-0.6-4.5-1.7-6.7-3.2s-3.9-3.5-5.3-6.1c-1.4-2.5-2-5.7-2-9.6
		c0-5.2,1.7-9.2,5-12s7.8-4.8,13.3-6s11.4-1.8,17.7-1.8h4.2c0-6.6-0.7-11.6-2-15c-1.3-3.4-3.1-5.8-5.3-7.1c-2.2-1.3-4.7-1.9-7.5-1.9
		c-3.9,0-7.3,0.8-9.9,2.5c-2.6,1.7-4.5,4.8-5.6,9.4H45c0-2.4,0.1-4.7,0.4-6.8c0.3-2.1,1.3-4.1,3.1-5.9c1.8-1.8,4.7-3.1,8.7-3.8
		c4-0.8,8.2-1.1,12.4-1.1c3.2,0,6.3,0.4,9.2,1.1c3,0.8,5.6,2.1,7.9,4.2c2.3,2,4.1,5,5.5,8.9s2,9,2,15.4v38.1h-7l-4.9-6.3h-0.7
		c-1.4,1.8-3.7,3.5-6.9,5.2C71.6,432.4,67.3,433.3,61.9,433.3z M68.3,426.9c3.5,0,6.2-0.9,8.2-2.6s3.7-3.7,5.1-5.9v-19h-4.2
		c-7.1,0-12.6,1.3-16.6,3.9c-4,2.6-6,6-6,10.2c0,4.6,1.4,8,4.1,10.2C61.7,425.8,64.8,426.9,68.3,426.9z"/>
	<path fill="#FE69B2" d="M116.1,431.8v-49.3c0-4.2-0.6-7.6-1.8-10.2c-1.2-2.6-3.9-3.9-8.1-3.9h-2.8v-2.8h12.7c3.3,0,5.9,0.4,7.7,1.3
		s3.1,2.5,3.9,4.9c0.8,2.4,1.1,6,1.1,10.7v49.4h-12.7V431.8z M121.4,357.1c-2.2,0-4-0.9-5.6-2.7c-1.6-1.8-2.3-3.9-2.3-6.3
		c0-2,0.6-3.5,1.8-4.7c1.2-1.1,2.7-1.7,4.7-1.7c2.2,0,4,0.9,5.6,2.7c1.6,1.8,2.3,3.9,2.3,6.3c0,2-0.6,3.5-1.8,4.7
		C125,356.6,123.4,357.1,121.4,357.1z"/>
	<path fill="#FE69B2" d="M170.8,433.3c-5.6,0-10.2-0.5-13.8-1.5s-6.3-2.4-8-4.2c-1.8-1.8-2.8-3.8-3.1-6.1s-0.4-5.2-0.4-8.7h2.8
		c0.8,4.6,2.7,8.2,5.9,10.9c3.2,2.6,7.8,3.9,13.8,3.9c5.4,0,9.3-0.9,11.8-2.8c2.5-1.9,3.7-4.2,3.7-7s-1.1-5.2-3.2-7.1
		c-2.1-1.9-5.3-3.8-9.5-5.6l-8.5-3.5c-5.4-2.2-9.5-4.7-12.5-7.7s-4.4-6.7-4.4-11.4c0-5.9,2.2-10.5,6.6-13.6c4.4-3.1,10-4.7,16.6-4.7
		c5.4,0,9.8,0.5,13.3,1.5s6.1,2.4,7.9,4.2c1.8,1.8,2.8,3.8,3.1,6.1c0.3,2.3,0.4,5.2,0.4,8.7h-2.8c-0.8-4.6-2.7-8.2-5.9-10.9
		c-3.2-2.6-7.5-3.9-13.2-3.9c-4.6,0-8.1,0.9-10.5,2.8s-3.6,4.2-3.6,7.1c0,2.4,1,4.7,3,6.7s4.7,3.8,8.3,5.3l8.5,3.5
		c6,2.4,10.6,5.1,13.7,8c3.1,2.9,4.7,6.8,4.7,11.7c0,5.9-2.4,10.5-7,13.6C183.7,431.7,177.8,433.3,170.8,433.3z"/>
	<path fill="#FE69B2" d="M211.5,431.8v-76.1c0-4.2-0.6-7.6-1.8-10.2c-1.2-2.6-3.9-3.9-8.1-3.9h-2.8v-2.8h12.7c3.3,0,5.9,0.4,7.7,1.3
		s3.1,2.5,3.9,4.9s1.1,6,1.1,10.7v15.5c1.8-1.8,4.2-3.4,7.3-4.9c3.1-1.5,6.8-2.2,11-2.2c4,0,7.9,0.7,11.5,2.1c3.6,1.4,6.6,3.9,9,7.5
		c2.3,3.6,3.5,8.9,3.5,15.7v42.3h-12.7v-42.2c0-4.7-0.8-8.4-2.3-11.2c-1.5-2.8-3.4-4.8-5.8-6c-2.4-1.2-4.8-1.8-7.5-1.8
		c-2.8,0-5.4,0.8-7.8,2.3s-4.5,3.2-6.3,5.2v53.9h-12.6V431.8z"/>
	<path fill="#FE69B2" d="M301.9,433.3c-2,0-4.1-0.3-6.4-0.9c-2.3-0.6-4.5-1.7-6.7-3.2s-3.9-3.5-5.3-6.1c-1.4-2.5-2-5.7-2-9.6
		c0-5.2,1.7-9.2,5-12s7.8-4.8,13.3-6s11.4-1.8,17.7-1.8h4.2c0-6.6-0.7-11.6-2-15c-1.3-3.4-3.1-5.8-5.3-7.1c-2.2-1.3-4.7-1.9-7.5-1.9
		c-3.9,0-7.3,0.8-9.9,2.5c-2.6,1.7-4.5,4.8-5.6,9.4H285c0-2.4,0.1-4.7,0.4-6.8c0.3-2.1,1.3-4.1,3.1-5.9c1.8-1.8,4.7-3.1,8.7-3.8
		c4-0.8,8.2-1.1,12.4-1.1c3.2,0,6.3,0.4,9.2,1.1c3,0.8,5.6,2.1,7.9,4.2c2.3,2,4.1,5,5.5,8.9s2,9,2,15.4v38.1h-7l-4.9-6.3h-0.7
		c-1.4,1.8-3.7,3.5-6.9,5.2C311.5,432.4,307.3,433.3,301.9,433.3z M308.2,426.9c3.5,0,6.2-0.9,8.2-2.6s3.7-3.7,5.1-5.9v-19h-4.2
		c-7,0-12.6,1.3-16.6,3.9c-4,2.6-6,6-6,10.2c0,4.6,1.4,8,4.1,10.2C301.7,425.8,304.8,426.9,308.2,426.9z"/>
</g>
<g>
	<path fill="#F8FF64" d="M-67,323.5c-1.3,0-2.4-0.2-3.1-0.5s-1.3-1-1.6-2c-0.3-1-0.5-2.5-0.5-4.3v-31.2h5.2v31.2
		c0,1.7,0.3,3.1,0.8,4.2c0.5,1,1.6,1.6,3.3,1.6h1.1v1.1L-67,323.5L-67,323.5z"/>
	<path fill="#F8FF64" d="M-35.8,324.1c-0.8,0-1.7-0.1-2.6-0.4c-0.9-0.3-1.9-0.7-2.7-1.3c-0.8-0.7-1.6-1.4-2.2-2.5s-0.8-2.4-0.8-4
		c0-2.1,0.7-3.8,2.1-4.9c1.3-1.1,3.2-2,5.4-2.5c2.3-0.5,4.6-0.8,7.3-0.8h1.7c0-2.7-0.3-4.7-0.8-6.1c-0.6-1.4-1.2-2.4-2.2-2.9
		c-0.9-0.5-1.9-0.8-3.1-0.8c-1.6,0-2.9,0.4-4.1,1c-1.1,0.7-1.9,2-2.3,3.9h-2.5c0-1,0.1-1.9,0.2-2.8c0.1-0.8,0.6-1.7,1.2-2.4
		c0.8-0.8,1.9-1.2,3.6-1.5c1.7-0.3,3.3-0.5,5.1-0.5c1.3,0,2.5,0.2,3.8,0.5c1.2,0.3,2.3,0.8,3.2,1.7s1.7,2.1,2.3,3.6
		c0.6,1.6,0.8,3.7,0.8,6.3v15.6h-2.9l-2-2.5h-0.3c-0.6,0.8-1.5,1.4-2.8,2.2C-32,323.7-33.7,324.1-35.8,324.1z M-33.3,321.4
		c1.4,0,2.5-0.4,3.4-1c0.8-0.8,1.5-1.5,2.1-2.4v-7.8h-1.7c-2.9,0-5.1,0.6-6.8,1.6c-1.6,1-2.5,2.5-2.5,4.2c0,1.9,0.6,3.3,1.7,4.2
		C-36,321-34.7,321.4-33.3,321.4z"/>
	<path fill="#F8FF64" d="M-13.8,323.5v-20.2c0-1.7-0.3-3.1-0.8-4.2c-0.5-1-1.6-1.6-3.3-1.6h-1.1v-1.1h5.2c1.4,0,2.5,0.2,3.3,0.6
		c0.8,0.4,1.3,0.9,1.6,1.7h0.3c0.8-0.8,1.7-1.4,3-2c1.2-0.6,2.7-0.8,4.5-0.8c1.4,0,2.8,0.3,4,0.8c1.2,0.6,2.2,1.6,2.9,3.2
		c1-1.3,2.3-2.3,3.9-3c1.6-0.7,3.2-1,4.8-1c1.4,0,2.8,0.3,4,0.8c1.1,0.6,2.2,1.6,2.9,3.1c0.8,1.5,1.1,3.6,1.1,6.4v17.3h-5.2v-17.3
		c0-2.9-0.4-4.9-1.2-6c-0.8-1.1-2-1.7-3.4-1.7c-1.1,0-2.3,0.4-3.5,1.2c-1.2,0.8-2.1,1.7-2.5,2.5c0.2,0.4,0.3,1,0.3,1.9s0,1.5,0,2.2
		v17.3H1.8v-17.4c0-2.9-0.4-4.9-1.2-6s-2-1.7-3.4-1.7c-1.1,0-2.3,0.3-3.2,0.9c-0.9,0.7-1.8,1.3-2.5,2.2v22L-13.8,323.5L-13.8,323.5z
		"/>
</g>
<g>
	<path fill="#FE69B2" d="M-62.5,523.5v-64.8c0-3.6-0.5-6.5-1.5-8.7s-3.3-3.3-6.9-3.3h-2.4v-2.4h10.8c2.8,0,5,0.4,6.5,1.1
		c1.6,0.7,2.7,2.1,3.3,4.2c0.6,2.1,1,5.1,1,9.1v60h42.6v4.8H-62.5L-62.5,523.5z"/>
	<path fill="#FE69B2" d="M20.7,524.7c-5.6,0-10.3-1.3-14-4c-3.7-2.6-6.5-6.2-8.4-10.7s-2.8-9.4-2.8-14.8c0-5.4,1-10.4,2.9-14.8
		s4.7-8,8.3-10.6c3.6-2.6,7.9-4,12.8-4c8.2,0,14.2,2.3,18.1,6.8c3.9,4.6,5.9,11.1,5.9,19.6l-0.2,4.8H6.9c0,6.6,1.4,12,4.3,16.3
		c2.8,4.3,6.8,6.5,11.9,6.5c3.9,0,7.2-0.8,9.8-2.5c2.6-1.7,4.9-4,7-7.1l2.4,1.8c-2.7,4.6-5.9,7.8-9.4,9.7
		C29.3,523.7,25.2,524.7,20.7,524.7z M6.9,492.3h25.2c0-7-1-12.3-3.1-16c-2.1-3.7-5.2-5.6-9.5-5.6c-2.4,0-4.5,0.9-6.4,2.8
		c-1.9,1.9-3.4,4.4-4.5,7.7C7.4,484.4,6.9,488.1,6.9,492.3z"/>
	<path fill="#FE69B2" d="M80.4,524.7c-5.6,0-10.4-1.3-14.3-4c-3.9-2.6-6.9-6.2-9-10.7c-2.1-4.5-3.1-9.4-3.1-14.8
		c0-5.4,1-10.4,3.1-14.8c2.1-4.4,5.1-8,9-10.6s8.7-4,14.3-4s10.4,1.3,14.3,4c3.9,2.6,6.9,6.2,9,10.6s3.1,9.4,3.1,14.8
		c0,5.4-1,10.3-3.1,14.8s-5.1,8-9,10.7S86,524.7,80.4,524.7z M80.4,519.9c3,0,5.7-1.1,7.9-3.3c2.2-2.2,4-5.2,5.2-8.9
		c1.2-3.7,1.9-7.9,1.9-12.4c0-4.6-0.6-8.8-1.9-12.5c-1.2-3.7-3-6.6-5.2-8.8s-4.9-3.3-7.9-3.3s-5.6,1.1-7.9,3.3
		c-2.3,2.2-4,5.1-5.3,8.8c-1.2,3.7-1.9,7.8-1.9,12.5c0,4.6,0.6,8.7,1.9,12.4c1.2,3.7,3,6.7,5.3,8.9
		C74.9,518.8,77.5,519.9,80.4,519.9z"/>
	<path fill="#FE69B2" d="M122.7,523.5v-42c0-3.6-0.5-6.5-1.5-8.7c-1-2.2-3.3-3.3-6.9-3.3h-2.4v-2.4h10.8c3,0,5.3,0.4,6.9,1.3
		c1.6,0.8,2.7,2,3.3,3.5h0.6c1.5-1.5,3.6-2.9,6.2-4.1c2.6-1.2,5.8-1.9,9.4-1.9c3.4,0,6.7,0.6,9.8,1.8s5.6,3.3,7.6,6.4s3,7.5,3,13.4
		v36h-10.8v-36c0-4-0.6-7.2-1.9-9.5c-1.3-2.4-2.9-4.1-4.9-5.1s-4.1-1.6-6.4-1.6c-2.4,0-4.6,0.6-6.7,1.9c-2,1.3-3.8,2.8-5.3,4.4v45.9
		H122.7z"/>
	<path fill="#FE69B2" d="M199.6,524.7c-1.7,0-3.5-0.3-5.5-0.8s-3.9-1.4-5.7-2.7c-1.8-1.3-3.3-3-4.5-5.2c-1.2-2.2-1.7-4.9-1.7-8.2
		c0-4.4,1.4-7.8,4.3-10.2c2.8-2.4,6.6-4.1,11.3-5.1c4.7-1,9.7-1.5,15.1-1.5h3.6c0-5.6-0.6-9.9-1.7-12.8c-1.1-2.9-2.6-4.9-4.5-6
		c-1.9-1.1-4-1.6-6.4-1.6c-3.4,0-6.2,0.7-8.5,2.2c-2.3,1.4-3.9,4.1-4.7,8h-5.4c0-2.1,0.1-4,0.4-5.8c0.3-1.8,1.1-3.5,2.6-5
		s4-2.6,7.4-3.2c3.4-0.6,7-1,10.6-1c2.7,0,5.3,0.3,7.9,1c2.5,0.6,4.8,1.8,6.7,3.5c2,1.7,3.5,4.2,4.7,7.6c1.2,3.3,1.7,7.7,1.7,13.1
		v32.5h-6l-4.2-5.4h-0.6c-1.2,1.5-3.2,3-5.9,4.4C207.8,524,204.2,524.7,199.6,524.7z M205,519.3c3,0,5.3-0.7,7-2.2s3.2-3.1,4.4-5
		v-16.2h-3.6c-6,0-10.7,1.1-14.1,3.3s-5.1,5.1-5.1,8.7c0,3.9,1.2,6.8,3.5,8.6C199.4,518.4,202,519.3,205,519.3z"/>
	<path fill="#FE69B2" d="M244.8,523.5v-42c0-3.6-0.5-6.5-1.5-8.7c-1-2.2-3.3-3.3-6.9-3.3h-1.2v-2.4h9.6c3,0,5.3,0.4,6.9,1.3
		c1.6,0.9,2.7,2.2,3.3,4.1h0.6c1.2-1.5,3-3,5.4-4.4c2.4-1.4,5.4-2.2,9-2.2c1.2,0,2.5,0.1,3.8,0.4c1.4,0.3,2.5,0.7,3.4,1.4
		c0.9,0.6,1.6,1.4,2.3,2.3c0.6,0.9,1.3,1.9,1.9,3.1l-4.8,3.6c-0.9-1.2-2.2-2.1-3.9-2.7c-1.7-0.6-3.6-0.9-5.7-0.9
		c-2.4,0-4.6,0.5-6.6,1.6s-3.6,2.5-4.8,4.4v44.4H244.8z"/>
	<path fill="#FE69B2" d="M309,524.7c-4.8,0-8.8-1.3-12-4c-3.2-2.6-5.6-6.2-7.2-10.7s-2.4-9.4-2.4-14.8c0-5.4,0.8-10.4,2.5-14.8
		c1.6-4.4,4.1-8,7.5-10.6s7.6-4,12.8-4c3.4,0,6.2,0.4,8.6,1.1c2.4,0.8,4.5,1.6,6.4,2.5v-10.8c0-3.6-0.5-6.5-1.5-8.7
		s-3.3-3.3-6.9-3.3h-2.4v-2.4h10.8c2.8,0,5,0.4,6.5,1.1c1.6,0.7,2.7,2.1,3.3,4.2c0.6,2.1,1,5.1,1,9.1v64.9h-6l-4.2-5.4h-0.6
		c-1.3,1.5-3.1,3-5.4,4.4C317.5,524,313.9,524.7,309,524.7z M312.6,519.9c3.7,0,6.4-0.8,8.1-2.3s3.2-3.2,4.5-4.9v-38.4
		c-1.8-0.9-3.7-1.7-5.7-2.5s-3.9-1.1-5.7-1.1c-3.6,0-6.5,1.1-8.7,3.3c-2.2,2.2-3.8,5.1-4.8,8.8s-1.5,7.8-1.5,12.5
		c0,4.6,0.5,8.7,1.4,12.4c1,3.7,2.5,6.7,4.5,8.9C306.8,518.8,309.4,519.9,312.6,519.9z"/>
</g>
</svg>
